<svg 
    xmlns="http://www.w3.org/2000/svg" viewBox="0 0 58.7 56.7">
    <defs>
        <style>.cls-1{fill:#fff;}</style>
    </defs>
    <title>Asset 1</title>
    <g id="Layer_2" data-name="Layer 2">
        <g id="Layer_1-2" data-name="Layer 1">
            <path class="cls-1" d="M2.35,22.7a2.35,2.35,0,0,1,0-4.7h54a2.35,2.35,0,1,1,0,4.7Zm0-4a1.65,1.65,0,0,0,0,3.3h54a1.65,1.65,0,0,0,0-3.3Z"/>
            <path class="cls-1" d="M2.35,48.7A.35.35,0,0,1,2,48.35v-26A.35.35,0,0,1,2.35,22h54a.35.35,0,0,1,.35.35v26a.35.35,0,0,1-.35.35ZM2.7,48H56V22.7H2.7Z"/>
            <path class="cls-1" d="M6.35,44.7A.35.35,0,0,1,6,44.35v-18A.35.35,0,0,1,6.35,26h20a.35.35,0,0,1,.35.35v18a.35.35,0,0,1-.35.35ZM6.7,44H26V26.7H6.7Z"/>
            <path class="cls-1" d="M26.35,44.7a.35.35,0,0,1-.35-.35v-18a.35.35,0,0,1,.35-.35h26a.35.35,0,0,1,.35.35v18a.35.35,0,0,1-.35.35Zm.35-.7H52V26.7H26.7Z"/>
            <path class="cls-1" d="M50.35,52.7a.35.35,0,0,1-.35-.35v-4a.35.35,0,0,1,.35-.35h4a.35.35,0,0,1,.35.35v4a.35.35,0,0,1-.35.35Zm.35-.7H54V48.7H50.7Z"/>
            <path class="cls-1" d="M52.35,56.7a.35.35,0,0,1-.35-.35v-4a.35.35,0,0,1,.7,0v4A.35.35,0,0,1,52.35,56.7Z"/>
            <path class="cls-1" d="M50.35,56.7a.35.35,0,0,1,0-.7h4a.35.35,0,0,1,0,.7Z"/>
            <path class="cls-1" d="M4.35,52.7A.35.35,0,0,1,4,52.35v-4A.35.35,0,0,1,4.35,48h4a.35.35,0,0,1,.35.35v4a.35.35,0,0,1-.35.35ZM4.7,52H8V48.7H4.7Z"/>
            <path class="cls-1" d="M6.35,56.7A.35.35,0,0,1,6,56.35v-4a.35.35,0,1,1,.7,0v4A.35.35,0,0,1,6.35,56.7Z"/>
            <path class="cls-1" d="M4.35,56.7a.35.35,0,0,1,0-.7h4a.35.35,0,1,1,0,.7Z"/>
            <path class="cls-1" d="M26.35,44.7a.35.35,0,0,1-.35-.35v-12a.35.35,0,0,1,.35-.35h26a.35.35,0,0,1,.35.35v12a.35.35,0,0,1-.35.35Zm.35-.7H52V32.7H26.7Z"/>
            <path class="cls-1" d="M31.35,28.7a.35.35,0,0,1-.35-.35v-2a.35.35,0,1,1,.7,0v2A.35.35,0,0,1,31.35,28.7Z"/>
            <path class="cls-1" d="M35.35,28.7a.35.35,0,0,1-.35-.35v-2a.35.35,0,0,1,.7,0v2A.35.35,0,0,1,35.35,28.7Z"/>
            <path class="cls-1" d="M39.35,28.7a.35.35,0,0,1-.35-.35v-2a.35.35,0,0,1,.7,0v2A.35.35,0,0,1,39.35,28.7Z"/>
            <path class="cls-1" d="M43.35,28.7a.35.35,0,0,1-.35-.35v-2a.35.35,0,0,1,.7,0v2A.35.35,0,0,1,43.35,28.7Z"/>
            <path class="cls-1" d="M47.35,28.7a.35.35,0,0,1-.35-.35v-2a.35.35,0,0,1,.7,0v2A.35.35,0,0,1,47.35,28.7Z"/>
            <path class="cls-1" d="M35.35,38.7a.35.35,0,0,1-.35-.35v-2a.35.35,0,0,1,.7,0V38H43V36.35a.35.35,0,0,1,.7,0v2a.35.35,0,0,1-.35.35Z"/>
            <path class="cls-1" d="M8.35,18.7A.35.35,0,0,1,8,18.35v-10A.35.35,0,0,1,8.35,8h16a.35.35,0,0,1,.35.35v10a.35.35,0,0,1-.35.35ZM8.7,18H24V8.7H8.7Z"/>
            <path class="cls-1" d="M6.35,8.7A.35.35,0,0,1,6,8.35V7.48A3.48,3.48,0,0,1,9.48,4H23.22A3.48,3.48,0,0,1,26.7,7.48v.87a.35.35,0,0,1-.35.35Zm3.13-4A2.77,2.77,0,0,0,6.71,7.31l0,.69H26l0-.69A2.79,2.79,0,0,0,23.22,4.7Z"/>
            <path class="cls-1" d="M12.35,4.7A.35.35,0,0,1,12,4.35v-4A.35.35,0,0,1,12.35,0h8a.35.35,0,0,1,.35.35v4a.35.35,0,0,1-.35.35ZM12.7,4H20V.7H12.7Z"/>
            <path class="cls-1" d="M6.35,44.7A.35.35,0,0,1,6,44.35v-18A.35.35,0,0,1,6.35,26h10a.35.35,0,0,1,.35.35v18a.35.35,0,0,1-.35.35ZM6.7,44H16V26.7H6.7Z"/>
            <path class="cls-1" d="M16.35,44.7a.35.35,0,0,1-.35-.35v-18a.35.35,0,0,1,.35-.35h10a.35.35,0,0,1,.35.35v18a.35.35,0,0,1-.35.35Zm.35-.7H26V26.7H16.7Z"/>
            <path class="cls-1" d="M10.35,36.7a.35.35,0,0,1-.35-.35v-2a.35.35,0,0,1,.35-.35h2a.35.35,0,0,1,0,.7H10.7v1.65A.35.35,0,0,1,10.35,36.7Z"/>
            <path class="cls-1" d="M22.35,36.7a.35.35,0,0,1-.35-.35V34.7H20.35a.35.35,0,0,1,0-.7h2a.35.35,0,0,1,.35.35v2A.35.35,0,0,1,22.35,36.7Z"/>
            <path class="cls-1" d="M34.35,18.7a.35.35,0,0,1-.35-.35v-4a.35.35,0,0,1,.35-.35h16a.35.35,0,0,1,.35.35v4a.35.35,0,0,1-.35.35Zm.35-.7H50V14.7H34.7Z"/>
            <path class="cls-1" d="M39.35,14.7A4.35,4.35,0,0,1,35,10.35a.35.35,0,0,1,.35-.35h14a.35.35,0,0,1,.35.35,4.35,4.35,0,0,1-4.35,4.35Zm-3.44-3.13A3.66,3.66,0,0,0,39.35,14h6a3.66,3.66,0,0,0,3.44-2.43l.31-.87H35.6Z"/>
            <path class="cls-1" d="M49.35,10.7a.35.35,0,1,1,0-.7h7a.35.35,0,1,1,0,.7Z"/>
            <path class="cls-1" d="M39.35,6.7a.39.39,0,0,1-.25-.1,2.69,2.69,0,0,1-1-1.75,2.71,2.71,0,0,1,1-1.75c1-1,1-1.46,0-2.5a.37.37,0,0,1,0-.5.36.36,0,0,1,.5,0,2.71,2.71,0,0,1,1,1.75,2.69,2.69,0,0,1-1,1.75c-1,1-1,1.46,0,2.5a.37.37,0,0,1,0,.5A.39.39,0,0,1,39.35,6.7Z"/>
            <path class="cls-1" d="M46.35,6.7a.35.35,0,0,1-.24-.1,2.67,2.67,0,0,1-1-1.75,2.69,2.69,0,0,1,1-1.75c1-1,1-1.46,0-2.5a.35.35,0,0,1,.24-.6.37.37,0,0,1,.25.1,2.69,2.69,0,0,1,1,1.75,2.67,2.67,0,0,1-1,1.75c-1,1-1,1.46,0,2.5a.35.35,0,0,1,0,.5A.36.36,0,0,1,46.35,6.7Z"/>
        </g>
    </g>
</svg>