<svg 
 xmlns="http://www.w3.org/2000/svg"
 xmlns:xlink="http://www.w3.org/1999/xlink"
 width="12px" height="12px">
<path fill-rule="evenodd"  fill="rgb(255, 255, 255)"
 d="M7.414,6.002 L11.657,10.245 C12.047,10.635 12.047,11.268 11.657,11.659 C11.266,12.050 10.633,12.050 10.243,11.659 L6.000,7.416 L1.757,11.659 C1.367,12.050 0.734,12.050 0.343,11.659 C-0.047,11.268 -0.047,10.635 0.343,10.245 L4.586,6.002 L0.343,1.759 C-0.047,1.368 -0.047,0.735 0.343,0.344 C0.734,-0.046 1.367,-0.046 1.757,0.344 L6.000,4.587 L10.243,0.344 C10.633,-0.046 11.266,-0.046 11.657,0.344 C12.047,0.735 12.047,1.368 11.657,1.759 L7.414,6.002 Z"/>
</svg>