<svg 
 xmlns="http://www.w3.org/2000/svg"
 xmlns:xlink="http://www.w3.org/1999/xlink"
 width="16px" height="12px">
<path fill-rule="evenodd"  fill="rgb(255, 255, 255)"
 d="M15.000,12.002 L1.000,12.002 C0.448,12.002 -0.000,11.554 -0.000,11.002 L-0.000,11.002 C-0.000,10.450 0.448,10.002 1.000,10.002 L15.000,10.002 C15.552,10.002 16.000,10.450 16.000,11.002 L16.000,11.002 C16.000,11.554 15.552,12.002 15.000,12.002 ZM15.000,7.002 L1.000,7.002 C0.448,7.002 -0.000,6.554 -0.000,6.002 L-0.000,6.002 C-0.000,5.449 0.448,5.002 1.000,5.002 L15.000,5.002 C15.552,5.002 16.000,5.449 16.000,6.002 L16.000,6.002 C16.000,6.554 15.552,7.002 15.000,7.002 ZM15.000,2.001 L1.000,2.001 C0.448,2.001 -0.000,1.554 -0.000,1.001 L-0.000,1.001 C-0.000,0.449 0.448,0.001 1.000,0.001 L15.000,0.001 C15.552,0.001 16.000,0.449 16.000,1.001 L16.000,1.001 C16.000,1.554 15.552,2.001 15.000,2.001 Z"/>
</svg>